<svg width="342" height="79" viewBox="0 0 342 79" fill="none" xmlns="http://www.w3.org/2000/svg">
<path fill-rule="evenodd" clip-rule="evenodd" d="M30.5311 78.9715C30.8982 79.0378 31.2892 78.9895 31.6474 78.8086C32.5309 78.3624 32.889 77.2739 32.4473 76.3814C28.4507 68.3006 26.8091 62.5627 26.7613 58.5494C26.7195 55.293 27.7761 53.3814 29.5192 52.4828C30.3729 52.0456 31.0564 51.8677 31.6534 52.0154C32.2324 52.1572 32.6801 52.5853 33.1159 53.116C33.9874 54.1804 34.7217 55.6548 35.5365 57.2046C38.0079 61.9234 41.115 67.0885 48.0546 67.0885H48.0815H48.1083C55.0478 67.0885 58.155 61.9234 60.6264 57.2046C61.4412 55.6548 62.1755 54.1804 63.047 53.116C63.4828 52.5853 63.9305 52.1572 64.5125 52.0154C65.1094 51.8677 65.79 52.0456 66.6436 52.4828C68.3867 53.3814 69.4433 55.293 69.4045 58.5494C69.3538 62.5627 67.7152 68.3006 63.7156 76.3814C63.2738 77.2739 63.632 78.3624 64.5155 78.8086C64.7811 78.9413 65.0647 79.0016 65.3423 78.9986H65.3572C65.3572 78.9986 72.455 78.9986 79.6243 78.9986C88.7279 78.9986 96.1092 71.542 96.1092 62.3456C96.1092 51.7169 96.1092 37.1927 96.1092 25.0383C96.1092 11.2106 85.0118 0 71.3237 0C57.1014 0 38.9093 0 24.7018 0C18.1503 0 11.8674 2.62926 7.23505 7.30887C2.6027 11.9885 0 18.3355 0 24.9539C0 37.1263 0 51.6928 0 62.3456C0 71.542 7.3813 78.9986 16.4848 78.9986C23.4273 78.9986 30.2147 78.9986 30.2147 78.9986C30.3251 78.9986 30.4296 78.9896 30.5311 78.9715ZM69.2076 3.61826L56.2746 25.6293H24.466L22.6752 30.3753H53.4868L42.5029 49.0666C42.5029 49.0666 37.4229 47.6132 32.7428 48.566L32.7816 48.5781C34.6232 49.1419 36.0857 50.8033 37.3811 53.0557C38.3929 54.8196 39.357 56.9574 40.6166 58.8841C42.2254 61.3445 44.3535 63.4702 48.0546 63.4702H48.0815H48.1083C51.8094 63.4702 53.9376 61.3445 55.5463 58.8841C56.8059 56.9574 57.7699 54.8196 58.7848 53.0557C60.0772 50.8033 61.5397 49.1419 63.3843 48.5781C64.7215 48.165 66.3123 48.2525 68.2673 49.2595C71.0044 50.6676 73.0489 53.4808 72.9863 58.5946C72.9355 62.5054 71.5864 67.9569 68.1688 75.3803H79.6243C86.7519 75.3803 92.5274 69.5459 92.5274 62.3456V25.0383C92.5274 13.2066 83.0359 3.61826 71.3237 3.61826H69.2076Z" fill="url(#paint0_linear_373_29)"/>
<path d="M123.415 56.6418V44.4641H136.919V36.841H123.415V31.7176H138.293V23.6206H114.417V56.6418H123.415Z" fill="url(#paint1_linear_373_29)"/>
<path d="M149.81 30.2964C151.704 28.4022 151.704 25.3716 149.81 23.5247C147.916 21.6303 144.885 21.6303 142.991 23.5247C141.096 25.3716 141.096 28.4022 142.991 30.2964C144.885 32.1461 147.916 32.1461 149.81 30.2964V30.2964ZM150.804 56.6413V32.7657H142.044V56.6413H150.804V56.6413Z" fill="url(#paint2_linear_373_29)"/>
<path d="M154.126 44.7035C154.126 48.1174 155.263 51.0073 157.488 53.3748C159.714 55.742 162.555 56.9257 165.921 56.9257C169.382 56.9257 171.563 55.9788 172.511 54.1324V56.6414H181.082V32.7658H172.511V35.275C171.563 33.4284 169.382 32.4814 165.921 32.4814C162.555 32.4814 159.714 33.6652 157.488 36.0799C155.263 38.4472 154.126 41.3371 154.126 44.7035ZM162.792 44.7035C162.792 42.2381 165.068 40.1518 167.77 40.1518C170.473 40.1518 172.748 42.2381 172.748 44.7035C172.748 47.2166 170.473 49.2554 167.77 49.2554C165.068 49.2554 162.792 47.2166 162.792 44.7035Z" fill="url(#paint3_linear_373_29)"/>
<path d="M195.725 56.6418V40.3889H200.653V32.7661H195.725V23.6206H186.964V32.7661H183.695V40.3889H186.964V56.6418H195.725Z" fill="url(#paint4_linear_373_29)"/>
<path d="M212.118 56.6418V39.1602L221.883 52.6624L231.647 39.1602V56.6418H239.98V23.6206H232.594L221.883 38.6391L211.171 23.6206H203.785V56.6418H212.118V56.6418Z" fill="url(#paint5_linear_373_29)"/>
<path d="M243.826 44.7035C243.826 48.1174 244.962 51.0073 247.188 53.3748C249.413 55.742 252.254 56.9257 255.62 56.9257C259.081 56.9257 261.263 55.9788 262.211 54.1324V56.6414H270.782V32.7658H262.211V35.275C261.263 33.4284 259.081 32.4814 255.62 32.4814C252.254 32.4814 249.413 33.6652 247.188 36.0799C244.962 38.4472 243.826 41.3371 243.826 44.7035ZM252.491 44.7035C252.491 42.2381 254.767 40.1518 257.47 40.1518C260.172 40.1518 262.448 42.2381 262.448 44.7035C262.448 47.2166 260.172 49.2554 257.47 49.2554C254.767 49.2554 252.491 47.2166 252.491 44.7035Z" fill="url(#paint6_linear_373_29)"/>
<path d="M285.424 56.6418V40.3889H290.351V32.7661H285.424V23.6206H276.663V32.7661H273.394V40.3889H276.663V56.6418H285.424Z" fill="url(#paint7_linear_373_29)"/>
<path d="M304.661 32.0074C300.917 32.0074 297.697 33.1912 295.092 35.606C292.488 38.0207 291.209 41.0051 291.209 44.6086C291.209 48.2123 292.488 51.1967 295.092 53.6115C297.697 56.0262 300.917 57.21 304.661 57.21C308.641 57.21 312.1 55.6002 315.038 52.3805L309.447 47.027C308.072 48.4494 306.509 49.1605 304.661 49.1605C302.007 49.1605 299.875 47.2165 299.875 44.6086C299.875 42.0009 302.007 40.0569 304.661 40.0569C306.509 40.0569 308.072 40.7681 309.447 42.1905L315.038 36.837C312.1 33.6173 308.641 32.0074 304.661 32.0074V32.0074Z" fill="url(#paint8_linear_373_29)"/>
<path d="M326.648 56.6418V43.5164C326.648 41.2894 328.07 39.6782 330.11 39.6782C332.149 39.6782 333.24 41.0998 333.24 43.4216V56.6418H342V42.5212C342 35.9377 338.875 32.1974 333.05 32.1974C330.11 32.1974 327.975 33.3809 326.648 35.7012V23.6206H317.887V56.6418H326.648Z" fill="url(#paint9_linear_373_29)"/>
<defs>
<linearGradient id="paint0_linear_373_29" x1="37.3176" y1="49.2488" x2="148.51" y2="-26.8304" gradientUnits="userSpaceOnUse">
<stop stop-color="#2E9C74"/>
<stop offset="1" stop-color="#30067F"/>
</linearGradient>
<linearGradient id="paint1_linear_373_29" x1="108.649" y1="81.6857" x2="357.694" y2="-7.74369" gradientUnits="userSpaceOnUse">
<stop stop-color="#2FBF71"/>
<stop offset="0.42" stop-color="#2F8575"/>
<stop offset="1" stop-color="#30067F"/>
</linearGradient>
<linearGradient id="paint2_linear_373_29" x1="108.651" y1="81.6852" x2="357.693" y2="-7.74269" gradientUnits="userSpaceOnUse">
<stop stop-color="#2FBF71"/>
<stop offset="0.42" stop-color="#2F8575"/>
<stop offset="1" stop-color="#30067F"/>
</linearGradient>
<linearGradient id="paint3_linear_373_29" x1="108.65" y1="81.6853" x2="357.693" y2="-7.74361" gradientUnits="userSpaceOnUse">
<stop stop-color="#2FBF71"/>
<stop offset="0.42" stop-color="#2F8575"/>
<stop offset="1" stop-color="#30067F"/>
</linearGradient>
<linearGradient id="paint4_linear_373_29" x1="108.65" y1="81.6857" x2="357.695" y2="-7.74362" gradientUnits="userSpaceOnUse">
<stop stop-color="#2FBF71"/>
<stop offset="0.42" stop-color="#2F8575"/>
<stop offset="1" stop-color="#30067F"/>
</linearGradient>
<linearGradient id="paint5_linear_373_29" x1="108.649" y1="81.6857" x2="357.693" y2="-7.74303" gradientUnits="userSpaceOnUse">
<stop stop-color="#2FBF71"/>
<stop offset="0.42" stop-color="#2F8575"/>
<stop offset="1" stop-color="#30067F"/>
</linearGradient>
<linearGradient id="paint6_linear_373_29" x1="108.65" y1="81.6853" x2="357.695" y2="-7.74439" gradientUnits="userSpaceOnUse">
<stop stop-color="#2FBF71"/>
<stop offset="0.42" stop-color="#2F8575"/>
<stop offset="1" stop-color="#30067F"/>
</linearGradient>
<linearGradient id="paint7_linear_373_29" x1="108.648" y1="81.6857" x2="357.694" y2="-7.74489" gradientUnits="userSpaceOnUse">
<stop stop-color="#2FBF71"/>
<stop offset="0.42" stop-color="#2F8575"/>
<stop offset="1" stop-color="#30067F"/>
</linearGradient>
<linearGradient id="paint8_linear_373_29" x1="108.649" y1="81.6853" x2="357.693" y2="-7.74407" gradientUnits="userSpaceOnUse">
<stop stop-color="#2FBF71"/>
<stop offset="0.42" stop-color="#2F8575"/>
<stop offset="1" stop-color="#30067F"/>
</linearGradient>
<linearGradient id="paint9_linear_373_29" x1="108.65" y1="81.6857" x2="357.693" y2="-7.74263" gradientUnits="userSpaceOnUse">
<stop stop-color="#2FBF71"/>
<stop offset="0.42" stop-color="#2F8575"/>
<stop offset="1" stop-color="#30067F"/>
</linearGradient>
</defs>
</svg>
