<svg width="142" height="33" viewBox="0 0 142 33" fill="none" xmlns="http://www.w3.org/2000/svg">
<path fill-rule="evenodd" clip-rule="evenodd" d="M12.6767 32.7894C12.8291 32.8169 12.9914 32.7969 13.1402 32.7218C13.507 32.5365 13.6557 32.0845 13.4723 31.7139C11.8129 28.3588 11.1313 25.9764 11.1114 24.31C11.0941 22.9579 11.5328 22.1642 12.2565 21.7911C12.611 21.6096 12.8948 21.5357 13.1426 21.5971C13.3831 21.6559 13.5689 21.8337 13.7499 22.054C14.1117 22.496 14.4166 23.1082 14.755 23.7517C15.7811 25.7109 17.0712 27.8555 19.9525 27.8555H19.9637H19.9748C22.8562 27.8555 24.1463 25.7109 25.1724 23.7517C25.5107 23.1082 25.8156 22.496 26.1774 22.054C26.3584 21.8337 26.5443 21.6559 26.7859 21.5971C27.0338 21.5357 27.3164 21.6096 27.6708 21.7911C28.3945 22.1642 28.8332 22.9579 28.8171 24.31C28.7961 25.9764 28.1157 28.3588 26.455 31.7139C26.2716 32.0845 26.4203 32.5365 26.7872 32.7218C26.8975 32.7768 27.0152 32.8019 27.1305 32.8006H27.1367C27.1367 32.8006 30.0837 32.8006 33.0604 32.8006C36.8403 32.8006 39.905 29.7046 39.905 25.8862C39.905 21.4731 39.905 15.4426 39.905 10.3961C39.905 4.65469 35.2974 0 29.614 0C23.7088 0 16.1553 0 10.2563 0C7.5361 0 4.9274 1.09168 3.00403 3.03468C1.08066 4.97768 0 7.613 0 10.361C0 15.415 0 21.4631 0 25.8862C0 29.7046 3.06475 32.8006 6.84458 32.8006C9.72716 32.8006 12.5453 32.8006 12.5453 32.8006C12.5911 32.8006 12.6345 32.7969 12.6767 32.7894ZM28.7354 1.50232L23.3655 10.6414H10.1584L9.41486 12.612H22.208L17.6474 20.3727C17.6474 20.3727 15.5382 19.7693 13.595 20.1649L13.6111 20.1699C14.3757 20.404 14.983 21.0938 15.5208 22.029C15.9409 22.7614 16.3412 23.649 16.8642 24.449C17.5322 25.4706 18.4158 26.3532 19.9525 26.3532H19.9637H19.9748C21.5115 26.3532 22.3952 25.4706 23.0631 24.449C23.5861 23.649 23.9864 22.7614 24.4077 22.029C24.9444 21.0938 25.5516 20.404 26.3175 20.1699C26.8727 19.9984 27.5332 20.0347 28.345 20.4528C29.4814 21.0375 30.3303 22.2055 30.3043 24.3288C30.2832 25.9526 29.723 28.2161 28.3041 31.2983H33.0604C36.0199 31.2983 38.4179 28.8758 38.4179 25.8862V10.3961C38.4179 5.48347 34.4769 1.50232 29.614 1.50232H28.7354Z" fill="url(#paint0_linear_373_29)"/>
<path d="M51.2425 23.5181V18.4618H56.8497V15.2967H51.2425V13.1694H57.4203V9.8075H47.5068V23.5181H51.2425Z" fill="url(#paint1_linear_373_29)"/>
<path d="M62.202 12.5793C62.9887 11.7928 62.9887 10.5345 62.202 9.76766C61.4155 8.98109 60.1572 8.98109 59.3708 9.76766C58.5841 10.5345 58.5841 11.7928 59.3708 12.5793C60.1572 13.3473 61.4155 13.3473 62.202 12.5793V12.5793ZM62.6148 23.5179V13.6046H58.9776V23.5179H62.6148V23.5179Z" fill="url(#paint2_linear_373_29)"/>
<path d="M63.9941 18.5612C63.9941 19.9787 64.4659 21.1786 65.39 22.1616C66.3141 23.1445 67.4937 23.636 68.8913 23.636C70.3284 23.636 71.234 23.2428 71.6277 22.4762V23.5179H75.1862V13.6046H71.6277V14.6465C71.234 13.8797 70.3284 13.4866 68.8913 13.4866C67.4937 13.4866 66.3141 13.9781 65.39 14.9807C64.4659 15.9636 63.9941 17.1635 63.9941 18.5612ZM67.592 18.5612C67.592 17.5376 68.5369 16.6713 69.659 16.6713C70.7812 16.6713 71.726 17.5376 71.726 18.5612C71.726 19.6047 70.7812 20.4512 69.659 20.4512C68.5369 20.4512 67.592 19.6047 67.592 18.5612Z" fill="url(#paint3_linear_373_29)"/>
<path d="M81.2664 23.5181V16.7698H83.3125V13.6047H81.2664V9.8075H77.629V13.6047H76.2715V16.7698H77.629V23.5181H81.2664Z" fill="url(#paint4_linear_373_29)"/>
<path d="M88.073 23.5181V16.2596L92.1271 21.8658L96.1812 16.2596V23.5181H99.6415V9.8075H96.5744L92.1271 16.0433L87.6798 9.8075H84.6128V23.5181H88.073V23.5181Z" fill="url(#paint5_linear_373_29)"/>
<path d="M101.238 18.5612C101.238 19.9787 101.71 21.1786 102.634 22.1616C103.558 23.1445 104.737 23.636 106.135 23.636C107.572 23.636 108.478 23.2428 108.871 22.4762V23.5179H112.43V13.6046H108.871V14.6465C108.478 13.8797 107.572 13.4866 106.135 13.4866C104.737 13.4866 103.558 13.9781 102.634 14.9807C101.71 15.9636 101.238 17.1635 101.238 18.5612ZM104.836 18.5612C104.836 17.5376 105.781 16.6713 106.903 16.6713C108.025 16.6713 108.97 17.5376 108.97 18.5612C108.97 19.6047 108.025 20.4512 106.903 20.4512C105.781 20.4512 104.836 19.6047 104.836 18.5612Z" fill="url(#paint6_linear_373_29)"/>
<path d="M118.51 23.5181V16.7698H120.556V13.6047H118.51V9.8075H114.872V13.6047H113.515V16.7698H114.872V23.5181H118.51Z" fill="url(#paint7_linear_373_29)"/>
<path d="M126.497 13.2897C124.942 13.2897 123.605 13.7812 122.524 14.7838C121.442 15.7864 120.912 17.0256 120.912 18.5217C120.912 20.018 121.442 21.2572 122.524 22.2598C123.605 23.2624 124.942 23.7539 126.497 23.7539C128.149 23.7539 129.585 23.0855 130.805 21.7487L128.484 19.5259C127.913 20.1164 127.264 20.4117 126.497 20.4117C125.395 20.4117 124.51 19.6046 124.51 18.5217C124.51 17.439 125.395 16.6318 126.497 16.6318C127.264 16.6318 127.913 16.9271 128.484 17.5177L130.805 15.2949C129.585 13.9581 128.149 13.2897 126.497 13.2897V13.2897Z" fill="url(#paint8_linear_373_29)"/>
<path d="M135.626 23.5181V18.0683C135.626 17.1437 136.216 16.4747 137.063 16.4747C137.91 16.4747 138.363 17.065 138.363 18.029V23.5181H142V17.6551C142 14.9216 140.702 13.3686 138.284 13.3686C137.063 13.3686 136.177 13.86 135.626 14.8234V9.8075H131.988V23.5181H135.626Z" fill="url(#paint9_linear_373_29)"/>
<defs>
<linearGradient id="paint0_linear_373_29" x1="15.4945" y1="20.4483" x2="61.6622" y2="-11.1401" gradientUnits="userSpaceOnUse">
<stop stop-color="#2E9C74"/>
<stop offset="1" stop-color="#30067F"/>
</linearGradient>
<linearGradient id="paint1_linear_373_29" x1="45.1118" y1="33.9164" x2="148.516" y2="-3.21513" gradientUnits="userSpaceOnUse">
<stop stop-color="#2FBF71"/>
<stop offset="0.42" stop-color="#2F8575"/>
<stop offset="1" stop-color="#30067F"/>
</linearGradient>
<linearGradient id="paint2_linear_373_29" x1="45.1125" y1="33.9162" x2="148.516" y2="-3.21472" gradientUnits="userSpaceOnUse">
<stop stop-color="#2FBF71"/>
<stop offset="0.42" stop-color="#2F8575"/>
<stop offset="1" stop-color="#30067F"/>
</linearGradient>
<linearGradient id="paint3_linear_373_29" x1="45.112" y1="33.9163" x2="148.516" y2="-3.21509" gradientUnits="userSpaceOnUse">
<stop stop-color="#2FBF71"/>
<stop offset="0.42" stop-color="#2F8575"/>
<stop offset="1" stop-color="#30067F"/>
</linearGradient>
<linearGradient id="paint4_linear_373_29" x1="45.1126" y1="33.9164" x2="148.517" y2="-3.2151" gradientUnits="userSpaceOnUse">
<stop stop-color="#2FBF71"/>
<stop offset="0.42" stop-color="#2F8575"/>
<stop offset="1" stop-color="#30067F"/>
</linearGradient>
<linearGradient id="paint5_linear_373_29" x1="45.1121" y1="33.9164" x2="148.516" y2="-3.21486" gradientUnits="userSpaceOnUse">
<stop stop-color="#2FBF71"/>
<stop offset="0.42" stop-color="#2F8575"/>
<stop offset="1" stop-color="#30067F"/>
</linearGradient>
<linearGradient id="paint6_linear_373_29" x1="45.1122" y1="33.9163" x2="148.517" y2="-3.21541" gradientUnits="userSpaceOnUse">
<stop stop-color="#2FBF71"/>
<stop offset="0.42" stop-color="#2F8575"/>
<stop offset="1" stop-color="#30067F"/>
</linearGradient>
<linearGradient id="paint7_linear_373_29" x1="45.1114" y1="33.9164" x2="148.517" y2="-3.21563" gradientUnits="userSpaceOnUse">
<stop stop-color="#2FBF71"/>
<stop offset="0.42" stop-color="#2F8575"/>
<stop offset="1" stop-color="#30067F"/>
</linearGradient>
<linearGradient id="paint8_linear_373_29" x1="45.1115" y1="33.9162" x2="148.516" y2="-3.21536" gradientUnits="userSpaceOnUse">
<stop stop-color="#2FBF71"/>
<stop offset="0.42" stop-color="#2F8575"/>
<stop offset="1" stop-color="#30067F"/>
</linearGradient>
<linearGradient id="paint9_linear_373_29" x1="45.1118" y1="33.9164" x2="148.516" y2="-3.21469" gradientUnits="userSpaceOnUse">
<stop stop-color="#2FBF71"/>
<stop offset="0.42" stop-color="#2F8575"/>
<stop offset="1" stop-color="#30067F"/>
</linearGradient>
</defs>
</svg>
